<?xml version="1.0" encoding="UTF-8"?>
<!DOCTYPE svg PUBLIC "-//W3C//DTD SVG 1.1//EN" "http://www.w3.org/Graphics/SVG/1.1/DTD/svg11.dtd">
<svg xmlns="http://www.w3.org/2000/svg" version="1.1" viewBox="0 0 1024 1024" class="icon" aria-hidden="true" style="shape-rendering:geometricPrecision; text-rendering:geometricPrecision; image-rendering:optimizeQuality; fill-rule:evenodd; clip-rule:evenodd" xmlns:xlink="http://www.w3.org/1999/xlink">
<g><path style="opacity:1" fill="currentColor" d="M -0.5,-0.5 C 260.167,-0.5 520.833,-0.5 781.5,-0.5C 752.193,8.98695 724.859,22.4869 699.5,40C 657.96,70.5402 622.126,106.707 592,148.5C 555.06,201.034 525.394,257.701 503,318.5C 484.874,364.21 471.207,411.21 462,459.5C 459.697,471.474 462.863,481.641 471.5,490C 474.382,491.608 477.382,492.941 480.5,494C 499.79,495.27 519.124,495.937 538.5,496C 555.714,496.223 565.881,504.723 569,521.5C 569.62,546.168 566.953,570.501 561,594.5C 557.98,607.913 554.647,621.246 551,634.5C 529.437,621.88 508.604,623.047 488.5,638C 467.582,659.091 464.416,682.591 479,708.5C 488.709,721.273 501.542,728.773 517.5,731C 497.621,778.591 474.455,824.425 448,868.5C 417.12,918.38 376.62,958.547 326.5,989C 292.936,1006.24 257.603,1017.74 220.5,1023.5C 146.833,1023.5 73.1667,1023.5 -0.5,1023.5C -0.5,682.167 -0.5,340.833 -0.5,-0.5 Z M 260.5,352.5 C 262.859,353.176 265.192,354.009 267.5,355C 287.519,377.999 312.853,388.333 343.5,386C 366.089,383.543 384.423,373.543 398.5,356C 404.908,351.623 411.074,352.123 417,357.5C 421.937,364.135 421.604,370.468 416,376.5C 385.663,408.609 348.83,419.775 305.5,410C 282.476,403.588 263.643,391.088 249,372.5C 245.88,361.733 249.713,355.067 260.5,352.5 Z"/></g>
<g><circle style="opacity:1" fill="currentColor" cx="661.5" cy="373.5" r="56"/></g>
</svg>
